<mxfile host="app.diagrams.net" modified="2023-12-19T11:18:48.862Z" agent="Mozilla/5.0 (Windows NT 10.0; Win64; x64) AppleWebKit/537.36 (KHTML, like Gecko) Chrome/118.0.5993.771 YaBrowser/23.11.2.771 Yowser/2.5 Safari/537.36" etag="Rx0OWU3WcPAm0DSAe-J7" version="22.1.11" type="device">
  <diagram name="Страница — 1" id="mTFhNZYuPmqxxiZwF8eK">
    <mxGraphModel dx="759" dy="428" grid="1" gridSize="10" guides="1" tooltips="1" connect="1" arrows="1" fold="1" page="1" pageScale="1" pageWidth="827" pageHeight="1169" math="0" shadow="0">
      <root>
        <mxCell id="0" />
        <mxCell id="1" parent="0" />
        <mxCell id="FNIdl3-Ltxh3JRf6zXvg-1" value="" style="shape=folder;fontStyle=1;spacingTop=10;tabWidth=40;tabHeight=14;tabPosition=left;html=1;whiteSpace=wrap;" vertex="1" parent="1">
          <mxGeometry x="40" y="40" width="320" height="280" as="geometry" />
        </mxCell>
        <mxCell id="FNIdl3-Ltxh3JRf6zXvg-4" value="&lt;font style=&quot;font-size: 8px;&quot;&gt;Backend&lt;/font&gt;" style="text;html=1;strokeColor=none;fillColor=none;align=center;verticalAlign=middle;whiteSpace=wrap;rounded=0;" vertex="1" parent="1">
          <mxGeometry x="40" y="40" width="40" height="10" as="geometry" />
        </mxCell>
        <mxCell id="FNIdl3-Ltxh3JRf6zXvg-5" value="Controller" style="shape=folder;fontStyle=1;spacingTop=10;tabWidth=40;tabHeight=14;tabPosition=left;html=1;whiteSpace=wrap;" vertex="1" parent="1">
          <mxGeometry x="70" y="90" width="70" height="50" as="geometry" />
        </mxCell>
        <mxCell id="FNIdl3-Ltxh3JRf6zXvg-6" value="" style="shape=folder;fontStyle=1;spacingTop=10;tabWidth=40;tabHeight=14;tabPosition=left;html=1;whiteSpace=wrap;" vertex="1" parent="1">
          <mxGeometry x="440" y="40" width="320" height="280" as="geometry" />
        </mxCell>
        <mxCell id="FNIdl3-Ltxh3JRf6zXvg-7" value="Routes" style="shape=folder;fontStyle=1;spacingTop=10;tabWidth=40;tabHeight=14;tabPosition=left;html=1;whiteSpace=wrap;" vertex="1" parent="1">
          <mxGeometry x="165" y="180" width="70" height="50" as="geometry" />
        </mxCell>
        <mxCell id="FNIdl3-Ltxh3JRf6zXvg-8" value="DB" style="shape=folder;fontStyle=1;spacingTop=10;tabWidth=40;tabHeight=14;tabPosition=left;html=1;whiteSpace=wrap;" vertex="1" parent="1">
          <mxGeometry x="260" y="90" width="70" height="50" as="geometry" />
        </mxCell>
        <mxCell id="FNIdl3-Ltxh3JRf6zXvg-12" value="" style="html=1;verticalAlign=bottom;endArrow=open;dashed=1;endSize=8;curved=0;rounded=0;entryX=1.008;entryY=0.696;entryDx=0;entryDy=0;entryPerimeter=0;exitX=0;exitY=0;exitDx=0;exitDy=32;exitPerimeter=0;" edge="1" parent="1" source="FNIdl3-Ltxh3JRf6zXvg-8" target="FNIdl3-Ltxh3JRf6zXvg-5">
          <mxGeometry x="0.0017" relative="1" as="geometry">
            <mxPoint x="230" y="120" as="sourcePoint" />
            <mxPoint x="180" y="140" as="targetPoint" />
            <mxPoint as="offset" />
          </mxGeometry>
        </mxCell>
        <mxCell id="FNIdl3-Ltxh3JRf6zXvg-13" value="" style="endArrow=open;endSize=12;dashed=1;html=1;rounded=0;exitX=0.75;exitY=1;exitDx=0;exitDy=0;exitPerimeter=0;entryX=0;entryY=0;entryDx=0;entryDy=32;entryPerimeter=0;" edge="1" parent="1" source="FNIdl3-Ltxh3JRf6zXvg-5" target="FNIdl3-Ltxh3JRf6zXvg-7">
          <mxGeometry width="160" relative="1" as="geometry">
            <mxPoint x="130" y="170" as="sourcePoint" />
            <mxPoint x="290" y="170" as="targetPoint" />
          </mxGeometry>
        </mxCell>
        <mxCell id="FNIdl3-Ltxh3JRf6zXvg-14" style="edgeStyle=orthogonalEdgeStyle;rounded=0;orthogonalLoop=1;jettySize=auto;html=1;exitX=0.5;exitY=1;exitDx=0;exitDy=0;exitPerimeter=0;" edge="1" parent="1" source="FNIdl3-Ltxh3JRf6zXvg-8" target="FNIdl3-Ltxh3JRf6zXvg-8">
          <mxGeometry relative="1" as="geometry" />
        </mxCell>
        <mxCell id="FNIdl3-Ltxh3JRf6zXvg-15" value="&lt;font style=&quot;font-size: 8px;&quot;&gt;Frontend&lt;/font&gt;" style="text;html=1;strokeColor=none;fillColor=none;align=center;verticalAlign=middle;whiteSpace=wrap;rounded=0;" vertex="1" parent="1">
          <mxGeometry x="440" y="40" width="40" height="10" as="geometry" />
        </mxCell>
        <mxCell id="FNIdl3-Ltxh3JRf6zXvg-16" value="UX components" style="shape=folder;fontStyle=1;spacingTop=10;tabWidth=40;tabHeight=14;tabPosition=left;html=1;whiteSpace=wrap;" vertex="1" parent="1">
          <mxGeometry x="470" y="80" width="80" height="60" as="geometry" />
        </mxCell>
        <mxCell id="FNIdl3-Ltxh3JRf6zXvg-17" value="UI components" style="shape=folder;fontStyle=1;spacingTop=10;tabWidth=40;tabHeight=14;tabPosition=left;html=1;whiteSpace=wrap;" vertex="1" parent="1">
          <mxGeometry x="610" y="85" width="80" height="55" as="geometry" />
        </mxCell>
        <mxCell id="FNIdl3-Ltxh3JRf6zXvg-18" value="Setup proxy" style="shape=folder;fontStyle=1;spacingTop=10;tabWidth=40;tabHeight=14;tabPosition=left;html=1;whiteSpace=wrap;" vertex="1" parent="1">
          <mxGeometry x="470" y="170" width="70" height="50" as="geometry" />
        </mxCell>
        <mxCell id="FNIdl3-Ltxh3JRf6zXvg-19" value="app router" style="shape=folder;fontStyle=1;spacingTop=10;tabWidth=40;tabHeight=14;tabPosition=left;html=1;whiteSpace=wrap;" vertex="1" parent="1">
          <mxGeometry x="615" y="170" width="70" height="50" as="geometry" />
        </mxCell>
        <mxCell id="FNIdl3-Ltxh3JRf6zXvg-20" value="Pages" style="shape=folder;fontStyle=1;spacingTop=10;tabWidth=40;tabHeight=14;tabPosition=left;html=1;whiteSpace=wrap;" vertex="1" parent="1">
          <mxGeometry x="545" y="250" width="70" height="50" as="geometry" />
        </mxCell>
        <mxCell id="FNIdl3-Ltxh3JRf6zXvg-22" value="" style="html=1;verticalAlign=bottom;endArrow=open;dashed=1;endSize=8;curved=0;rounded=0;entryX=0;entryY=0;entryDx=80;entryDy=48.5;entryPerimeter=0;exitX=-0.001;exitY=0.748;exitDx=0;exitDy=0;exitPerimeter=0;" edge="1" parent="1" source="FNIdl3-Ltxh3JRf6zXvg-17" target="FNIdl3-Ltxh3JRf6zXvg-16">
          <mxGeometry x="0.0017" relative="1" as="geometry">
            <mxPoint x="615" y="160" as="sourcePoint" />
            <mxPoint x="496" y="163" as="targetPoint" />
            <mxPoint as="offset" />
          </mxGeometry>
        </mxCell>
        <mxCell id="FNIdl3-Ltxh3JRf6zXvg-23" value="" style="html=1;verticalAlign=bottom;endArrow=open;dashed=1;endSize=8;curved=0;rounded=0;entryX=0;entryY=0;entryDx=0;entryDy=24.25;entryPerimeter=0;exitX=1.015;exitY=0.54;exitDx=0;exitDy=0;exitPerimeter=0;" edge="1" parent="1" source="FNIdl3-Ltxh3JRf6zXvg-16" target="FNIdl3-Ltxh3JRf6zXvg-17">
          <mxGeometry x="0.0017" relative="1" as="geometry">
            <mxPoint x="615" y="77" as="sourcePoint" />
            <mxPoint x="496" y="80" as="targetPoint" />
            <mxPoint as="offset" />
          </mxGeometry>
        </mxCell>
        <mxCell id="FNIdl3-Ltxh3JRf6zXvg-24" value="" style="html=1;verticalAlign=bottom;endArrow=open;dashed=1;endSize=8;curved=0;rounded=0;exitX=0;exitY=0;exitDx=55;exitDy=14;exitPerimeter=0;entryX=-0.028;entryY=0.763;entryDx=0;entryDy=0;entryPerimeter=0;" edge="1" parent="1" source="FNIdl3-Ltxh3JRf6zXvg-20" target="FNIdl3-Ltxh3JRf6zXvg-19">
          <mxGeometry x="0.0017" relative="1" as="geometry">
            <mxPoint x="615" y="230" as="sourcePoint" />
            <mxPoint x="496" y="233" as="targetPoint" />
            <mxPoint as="offset" />
          </mxGeometry>
        </mxCell>
        <mxCell id="FNIdl3-Ltxh3JRf6zXvg-25" value="" style="html=1;verticalAlign=bottom;endArrow=open;dashed=1;endSize=8;curved=0;rounded=0;entryX=0.996;entryY=0.3;entryDx=0;entryDy=0;entryPerimeter=0;exitX=-0.01;exitY=0.283;exitDx=0;exitDy=0;exitPerimeter=0;" edge="1" parent="1" source="FNIdl3-Ltxh3JRf6zXvg-6" target="FNIdl3-Ltxh3JRf6zXvg-1">
          <mxGeometry x="0.0017" relative="1" as="geometry">
            <mxPoint x="420" y="120" as="sourcePoint" />
            <mxPoint x="270" y="180" as="targetPoint" />
            <mxPoint as="offset" />
          </mxGeometry>
        </mxCell>
        <mxCell id="FNIdl3-Ltxh3JRf6zXvg-26" value="" style="html=1;verticalAlign=bottom;endArrow=open;dashed=1;endSize=8;curved=0;rounded=0;entryX=0.003;entryY=0.649;entryDx=0;entryDy=0;entryPerimeter=0;exitX=0.999;exitY=0.663;exitDx=0;exitDy=0;exitPerimeter=0;" edge="1" parent="1" source="FNIdl3-Ltxh3JRf6zXvg-1" target="FNIdl3-Ltxh3JRf6zXvg-6">
          <mxGeometry x="0.0017" relative="1" as="geometry">
            <mxPoint x="419" y="230" as="sourcePoint" />
            <mxPoint x="300" y="233" as="targetPoint" />
            <mxPoint as="offset" />
          </mxGeometry>
        </mxCell>
      </root>
    </mxGraphModel>
  </diagram>
</mxfile>
